Coordinates
version=1
nRows=9
nColumns=24
inDegrees=yes

Units are S.I. units (second, meters, Newtons, ...)
Angles are in degrees.

endheader
time	pelvis_tilt	pelvis_list	pelvis_rotation	pelvis_tx	pelvis_ty	pelvis_tz	hip_flexion_r	hip_adduction_r	hip_rotation_r	knee_angle_r	ankle_angle_r	subtalar_angle_r	mtp_angle_r	hip_flexion_l	hip_adduction_l	hip_rotation_l	knee_angle_l	ankle_angle_l	subtalar_angle_l	mtp_angle_l	lumbar_extension	lumbar_bending	lumbar_rotation
      0.64800000	     -1.03086740	      5.42504794	      5.57563521	     -0.72964570	      0.96727960	      0.27228948	     29.80838447	     -5.09164779	     -6.45115830	     -7.99931711	     10.84969334	     -4.46295098	      0.79098727	    -19.02945892	      8.14559584	      4.08858465	     -7.02902974	     11.25710977	      2.79273930	      0.99337931	     -0.28457933	     -4.32775960	     -5.00175083
      0.65216667	     -1.14339279	      5.35973956	      5.68283890	     -0.72353492	      0.96648747	      0.27240527	     29.86722604	     -5.02533108	     -6.43269879	     -8.37516564	     10.56678513	     -4.83551563	      5.27921047	    -19.05947379	      8.00191629	      4.06797401	     -7.41060937	     10.98688742	      2.80439985	      5.52608232	     -0.09422348	     -4.24477318	     -4.99129324
      0.65633333	     -1.23915507	      5.30405650	      5.78489616	     -0.71740379	      0.96572995	      0.27251878	     29.92937796	     -4.96954997	     -6.42275311	     -8.84315997	     10.50635983	     -5.05130629	      5.29491847	    -19.10047517	      7.87063028	      4.08336879	     -7.81597401	     10.80895365	      2.88215424	      5.55632972	      0.06122593	     -4.17652068	     -4.94034549
      0.66050000	     -1.35055159	      5.22212582	      5.88321101	     -0.71120059	      0.96497786	      0.27264670	     29.98051899	     -4.87921157	     -6.35840412	     -9.27357710	     10.28417428	     -5.35704433	      5.31371861	    -19.11407265	      7.71197852	      4.05480976	     -8.23593082	     10.59289313	      2.99994746	      5.61332079	      0.25328117	     -4.07502458	     -4.96703861
      0.66466667	     -1.46797693	      5.13499381	      5.95640877	     -0.70498814	      0.96422591	      0.27283327	     30.02962967	     -4.76127585	     -6.18845988	     -9.69711780	     10.01751689	     -5.86037238	      5.35579362	    -19.07881980	      7.55371182	      3.93969906	     -8.73615274	     10.42745914	      3.13999441	      5.74722285	      0.45407452	     -3.96970147	     -4.99263260
      0.66883333	     -1.50735949	      5.03415853	      6.02204366	     -0.69867285	      0.96359616	      0.27297247	     30.02550912	     -4.64747060	     -6.20361594	    -10.21066095	      9.79353992	     -6.02437386	      5.36062996	    -19.16985641	      7.37950743	      3.91638642	     -9.14390718	     10.12139740	      3.14945949	      5.77431219	      0.55942630	     -3.83957837	     -4.98586051
      0.67300000	     -1.67246736	      4.91116226	      6.08400853	     -0.69237299	      0.96284084	      0.27321097	     30.09491116	     -4.47293400	     -5.90623851	    -10.59886984	      9.39002374	     -6.87758378	      5.44467080	    -19.05311375	      7.18693021	      3.76964758	     -9.68603288	      9.91559604	      3.40424345	      6.09160282	      0.84704621	     -3.68234032	     -4.97481901
      0.67716667	     -1.77480615	      4.77699370	      6.14176139	     -0.68601891	      0.96220520	      0.27342591	     30.10508818	     -4.29613752	     -5.72357567	    -11.01313379	      8.97975879	     -7.48638657	      5.58376459	    -19.00103395	      6.97848597	      3.63607125	    -10.22422128	      9.58136747	      3.54243803	      6.63627879	      1.04551457	     -3.51791787	     -4.93006250
      0.68133333	     -1.91478075	      4.64913957	      6.17481253	     -0.67963320	      0.96152635	      0.27364269	     30.19673632	     -4.12908205	     -5.58381877	    -11.51239503	      8.52278291	     -7.99765138	      5.70292555	    -18.91348938	      6.79626611	      3.54856580	    -10.75209869	      9.26539680	      3.61002566	      7.15986229	      1.30439871	     -3.35055359	     -4.88912823
